<mxfile host="app.diagrams.net" agent="Mozilla/5.0 (Windows NT 10.0; Win64; x64) AppleWebKit/537.36 (KHTML, like Gecko) Chrome/133.0.0.0 Safari/537.36" version="26.0.15" pages="6">
  <diagram name="Cópia do telas(supervisor)" id="hiIPG0nIO8gYP-VI1-UR">
    <mxGraphModel dx="1257" dy="744" grid="1" gridSize="10" guides="1" tooltips="1" connect="1" arrows="1" fold="1" page="1" pageScale="1" pageWidth="827" pageHeight="1169" math="0" shadow="0">
      <root>
        <mxCell id="K8f9KEj-p7NqLD5hg-oz-0" />
        <mxCell id="K8f9KEj-p7NqLD5hg-oz-1" parent="K8f9KEj-p7NqLD5hg-oz-0" />
        <mxCell id="K8f9KEj-p7NqLD5hg-oz-2" value="equipamentos" style="rounded=1;whiteSpace=wrap;html=1;" vertex="1" parent="K8f9KEj-p7NqLD5hg-oz-1">
          <mxGeometry x="270" y="20" width="190" height="280" as="geometry" />
        </mxCell>
        <mxCell id="K8f9KEj-p7NqLD5hg-oz-3" value="Lista de backlog" style="rounded=1;whiteSpace=wrap;html=1;" vertex="1" parent="K8f9KEj-p7NqLD5hg-oz-1">
          <mxGeometry x="720" y="20" width="190" height="280" as="geometry" />
        </mxCell>
        <mxCell id="K8f9KEj-p7NqLD5hg-oz-4" value="Cadastro de equipamento(SAP)" style="rounded=1;whiteSpace=wrap;html=1;" vertex="1" parent="K8f9KEj-p7NqLD5hg-oz-1">
          <mxGeometry x="40" y="20" width="190" height="280" as="geometry" />
        </mxCell>
        <mxCell id="K8f9KEj-p7NqLD5hg-oz-6" value="&lt;div&gt;Visualizar relatorios&lt;/div&gt;" style="rounded=1;whiteSpace=wrap;html=1;" vertex="1" parent="K8f9KEj-p7NqLD5hg-oz-1">
          <mxGeometry x="40" y="340" width="190" height="280" as="geometry" />
        </mxCell>
        <mxCell id="469hdi4pGe01pH6HILYj-0" value="Cadastro de backlog" style="rounded=1;whiteSpace=wrap;html=1;" vertex="1" parent="K8f9KEj-p7NqLD5hg-oz-1">
          <mxGeometry x="490" y="20" width="190" height="280" as="geometry" />
        </mxCell>
      </root>
    </mxGraphModel>
  </diagram>
  <diagram id="nDt88JfSRNp2toyhLee0" name="telas(Inso- receb e checklist)">
    <mxGraphModel dx="1257" dy="744" grid="1" gridSize="10" guides="1" tooltips="1" connect="1" arrows="1" fold="1" page="1" pageScale="1" pageWidth="827" pageHeight="1169" math="0" shadow="0">
      <root>
        <mxCell id="0" />
        <mxCell id="1" parent="0" />
        <mxCell id="cH1Ck4klF8hNHSwwUJHy-1" value="&amp;nbsp;Lista Equipamentos" style="rounded=1;whiteSpace=wrap;html=1;" vertex="1" parent="1">
          <mxGeometry x="40" y="40" width="190" height="280" as="geometry" />
        </mxCell>
        <mxCell id="pmF_jaPxwLL-tIm1oQ6x-2" value="equipamento" style="rounded=1;whiteSpace=wrap;html=1;" vertex="1" parent="1">
          <mxGeometry x="710" y="40" width="190" height="280" as="geometry" />
        </mxCell>
        <mxCell id="pmF_jaPxwLL-tIm1oQ6x-3" value="Foto e laudo&lt;div&gt;&lt;br&gt;&lt;/div&gt;" style="rounded=1;whiteSpace=wrap;html=1;" vertex="1" parent="1">
          <mxGeometry x="30" y="360" width="190" height="280" as="geometry" />
        </mxCell>
        <mxCell id="pmF_jaPxwLL-tIm1oQ6x-5" value="&lt;div&gt;Visualizar relatorios&lt;/div&gt;" style="rounded=1;whiteSpace=wrap;html=1;" vertex="1" parent="1">
          <mxGeometry x="250" y="360" width="190" height="280" as="geometry" />
        </mxCell>
        <mxCell id="-P_lFt8NnCgs9alO2FXj-1" value="Histórico do equipamento&lt;div&gt;&lt;br&gt;&lt;/div&gt;&lt;div&gt;filtrar por equipamento(geral)&lt;/div&gt;&lt;div&gt;ordem de serviço&lt;/div&gt;" style="rounded=1;whiteSpace=wrap;html=1;" vertex="1" parent="1">
          <mxGeometry x="260" y="40" width="190" height="280" as="geometry" />
        </mxCell>
        <mxCell id="-P_lFt8NnCgs9alO2FXj-2" value="&lt;div&gt;Criar RNC&lt;/div&gt;" style="rounded=1;whiteSpace=wrap;html=1;" vertex="1" parent="1">
          <mxGeometry x="480" y="360" width="190" height="280" as="geometry" />
        </mxCell>
        <mxCell id="8h2_hSLoDwj1xU2znYeJ-1" value="Backlog" style="rounded=1;whiteSpace=wrap;html=1;" vertex="1" parent="1">
          <mxGeometry x="480" y="40" width="190" height="280" as="geometry" />
        </mxCell>
        <mxCell id="hmGopHt5VunYsrWfIpoN-1" value="&lt;div&gt;Cadastras checklist&lt;/div&gt;" style="rounded=1;whiteSpace=wrap;html=1;" vertex="1" parent="1">
          <mxGeometry x="700" y="360" width="190" height="280" as="geometry" />
        </mxCell>
        <mxCell id="hmGopHt5VunYsrWfIpoN-2" value="&lt;div&gt;Listar checklist(lista de verificação a ser vista)&lt;/div&gt;" style="rounded=1;whiteSpace=wrap;html=1;" vertex="1" parent="1">
          <mxGeometry x="920" y="360" width="190" height="280" as="geometry" />
        </mxCell>
        <mxCell id="hmGopHt5VunYsrWfIpoN-3" value="&lt;div&gt;checklist&lt;/div&gt;" style="rounded=1;whiteSpace=wrap;html=1;" vertex="1" parent="1">
          <mxGeometry x="1146" y="360" width="190" height="280" as="geometry" />
        </mxCell>
      </root>
    </mxGraphModel>
  </diagram>
  <diagram name="Gerenciador de KPI" id="rHQVYaE5zKOra6AIidWQ">
    <mxGraphModel dx="1257" dy="744" grid="1" gridSize="10" guides="1" tooltips="1" connect="1" arrows="1" fold="1" page="1" pageScale="1" pageWidth="827" pageHeight="1169" math="0" shadow="0">
      <root>
        <mxCell id="PBoOeWnNyTLWouQcgtOV-0" />
        <mxCell id="PBoOeWnNyTLWouQcgtOV-1" parent="PBoOeWnNyTLWouQcgtOV-0" />
        <mxCell id="PBoOeWnNyTLWouQcgtOV-2" value="&amp;nbsp;Lista Backlog" style="rounded=1;whiteSpace=wrap;html=1;" vertex="1" parent="PBoOeWnNyTLWouQcgtOV-1">
          <mxGeometry x="40" y="40" width="190" height="280" as="geometry" />
        </mxCell>
        <mxCell id="PBoOeWnNyTLWouQcgtOV-4" value="equipamento" style="rounded=1;whiteSpace=wrap;html=1;" vertex="1" parent="PBoOeWnNyTLWouQcgtOV-1">
          <mxGeometry x="260" y="40" width="190" height="280" as="geometry" />
        </mxCell>
        <mxCell id="PBoOeWnNyTLWouQcgtOV-6" value="&lt;div&gt;Visualizar relatorios&lt;/div&gt;" style="rounded=1;whiteSpace=wrap;html=1;" vertex="1" parent="PBoOeWnNyTLWouQcgtOV-1">
          <mxGeometry x="480" y="40" width="190" height="280" as="geometry" />
        </mxCell>
        <mxCell id="92pH50z8OQVQwevhQ7As-0" value="&lt;div&gt;Laudar relatorio&lt;/div&gt;" style="rounded=1;whiteSpace=wrap;html=1;" vertex="1" parent="PBoOeWnNyTLWouQcgtOV-1">
          <mxGeometry x="700" y="40" width="190" height="280" as="geometry" />
        </mxCell>
        <mxCell id="92pH50z8OQVQwevhQ7As-1" value="&lt;div&gt;Indicadores&lt;/div&gt;" style="rounded=1;whiteSpace=wrap;html=1;" vertex="1" parent="PBoOeWnNyTLWouQcgtOV-1">
          <mxGeometry x="40" y="360" width="190" height="280" as="geometry" />
        </mxCell>
      </root>
    </mxGraphModel>
  </diagram>
  <diagram name="Caso de uso" id="_b1WY7xIhgJeV-aMO-Em">
    <mxGraphModel dx="1707" dy="1690" grid="1" gridSize="10" guides="1" tooltips="1" connect="1" arrows="1" fold="1" page="1" pageScale="1" pageWidth="827" pageHeight="1169" math="0" shadow="0">
      <root>
        <mxCell id="0" />
        <mxCell id="1" parent="0" />
        <mxCell id="4nd8rl6Zj98e2TrmvBRe-1" value="Cadastrar equipamento" style="rounded=1;whiteSpace=wrap;html=1;" vertex="1" parent="1">
          <mxGeometry x="190" y="-100" width="120" height="60" as="geometry" />
        </mxCell>
        <mxCell id="0wPkpt6H3sj1SpFs3dl9-9" style="edgeStyle=orthogonalEdgeStyle;rounded=0;orthogonalLoop=1;jettySize=auto;html=1;entryX=0;entryY=0.5;entryDx=0;entryDy=0;" edge="1" parent="1" source="4nd8rl6Zj98e2TrmvBRe-2" target="0wPkpt6H3sj1SpFs3dl9-4">
          <mxGeometry relative="1" as="geometry" />
        </mxCell>
        <mxCell id="0wPkpt6H3sj1SpFs3dl9-10" style="edgeStyle=orthogonalEdgeStyle;rounded=0;orthogonalLoop=1;jettySize=auto;html=1;entryX=0;entryY=0.5;entryDx=0;entryDy=0;" edge="1" parent="1" source="4nd8rl6Zj98e2TrmvBRe-2" target="0wPkpt6H3sj1SpFs3dl9-5">
          <mxGeometry relative="1" as="geometry" />
        </mxCell>
        <mxCell id="apxjco7FhPxjEGnBSHkM-3" style="edgeStyle=orthogonalEdgeStyle;rounded=0;orthogonalLoop=1;jettySize=auto;html=1;entryX=0;entryY=0.5;entryDx=0;entryDy=0;" edge="1" parent="1" source="4nd8rl6Zj98e2TrmvBRe-2" target="apxjco7FhPxjEGnBSHkM-2">
          <mxGeometry relative="1" as="geometry" />
        </mxCell>
        <mxCell id="6WU-mcqa6msjAg0PFa0A-2" style="edgeStyle=orthogonalEdgeStyle;rounded=0;orthogonalLoop=1;jettySize=auto;html=1;entryX=0;entryY=0.5;entryDx=0;entryDy=0;" edge="1" parent="1" source="4nd8rl6Zj98e2TrmvBRe-2" target="6WU-mcqa6msjAg0PFa0A-1">
          <mxGeometry relative="1" as="geometry" />
        </mxCell>
        <mxCell id="4nd8rl6Zj98e2TrmvBRe-2" value="Inspetor" style="shape=umlActor;verticalLabelPosition=bottom;verticalAlign=top;html=1;outlineConnect=0;" vertex="1" parent="1">
          <mxGeometry x="-40" y="310" width="30" height="60" as="geometry" />
        </mxCell>
        <mxCell id="0wPkpt6H3sj1SpFs3dl9-11" style="edgeStyle=orthogonalEdgeStyle;rounded=0;orthogonalLoop=1;jettySize=auto;html=1;entryX=0;entryY=0.5;entryDx=0;entryDy=0;" edge="1" parent="1" source="4nd8rl6Zj98e2TrmvBRe-3" target="0wPkpt6H3sj1SpFs3dl9-2">
          <mxGeometry relative="1" as="geometry" />
        </mxCell>
        <mxCell id="0O_cjE4SGSH6WGL7jXQj-2" style="edgeStyle=orthogonalEdgeStyle;rounded=0;orthogonalLoop=1;jettySize=auto;html=1;entryX=0;entryY=0.5;entryDx=0;entryDy=0;" edge="1" parent="1" source="4nd8rl6Zj98e2TrmvBRe-3" target="0O_cjE4SGSH6WGL7jXQj-1">
          <mxGeometry relative="1" as="geometry" />
        </mxCell>
        <mxCell id="4nd8rl6Zj98e2TrmvBRe-3" value="Gerador de indicadores" style="shape=umlActor;verticalLabelPosition=bottom;verticalAlign=top;html=1;outlineConnect=0;" vertex="1" parent="1">
          <mxGeometry x="-40" y="810" width="30" height="60" as="geometry" />
        </mxCell>
        <mxCell id="VcVtw3n01UNGFcfDIInl-1" style="edgeStyle=orthogonalEdgeStyle;rounded=0;orthogonalLoop=1;jettySize=auto;html=1;entryX=0;entryY=0.5;entryDx=0;entryDy=0;" edge="1" parent="1" source="4nd8rl6Zj98e2TrmvBRe-4" target="4nd8rl6Zj98e2TrmvBRe-1">
          <mxGeometry relative="1" as="geometry" />
        </mxCell>
        <mxCell id="VcVtw3n01UNGFcfDIInl-2" style="edgeStyle=orthogonalEdgeStyle;rounded=0;orthogonalLoop=1;jettySize=auto;html=1;entryX=0;entryY=0.5;entryDx=0;entryDy=0;" edge="1" parent="1" source="4nd8rl6Zj98e2TrmvBRe-4" target="0wPkpt6H3sj1SpFs3dl9-3">
          <mxGeometry relative="1" as="geometry" />
        </mxCell>
        <mxCell id="0O_cjE4SGSH6WGL7jXQj-3" style="edgeStyle=orthogonalEdgeStyle;rounded=0;orthogonalLoop=1;jettySize=auto;html=1;" edge="1" parent="1" source="4nd8rl6Zj98e2TrmvBRe-4" target="apxjco7FhPxjEGnBSHkM-1">
          <mxGeometry relative="1" as="geometry" />
        </mxCell>
        <mxCell id="4nd8rl6Zj98e2TrmvBRe-4" value="Supervisor" style="shape=umlActor;verticalLabelPosition=bottom;verticalAlign=top;html=1;outlineConnect=0;" vertex="1" parent="1">
          <mxGeometry y="-10" width="30" height="60" as="geometry" />
        </mxCell>
        <mxCell id="0wPkpt6H3sj1SpFs3dl9-1" value="Incluir fotos" style="rounded=1;whiteSpace=wrap;html=1;" vertex="1" parent="1">
          <mxGeometry x="180" y="230" width="120" height="60" as="geometry" />
        </mxCell>
        <mxCell id="0wPkpt6H3sj1SpFs3dl9-2" value="visualizar os indicadores" style="rounded=1;whiteSpace=wrap;html=1;" vertex="1" parent="1">
          <mxGeometry x="180" y="770" width="120" height="60" as="geometry" />
        </mxCell>
        <mxCell id="0wPkpt6H3sj1SpFs3dl9-3" value="Incluir lista tarefa para inspetor" style="rounded=1;whiteSpace=wrap;html=1;" vertex="1" parent="1">
          <mxGeometry x="190" y="-30" width="120" height="60" as="geometry" />
        </mxCell>
        <mxCell id="0wPkpt6H3sj1SpFs3dl9-4" value="Informar laudos" style="rounded=1;whiteSpace=wrap;html=1;" vertex="1" parent="1">
          <mxGeometry x="180" y="310" width="120" height="60" as="geometry" />
        </mxCell>
        <mxCell id="0wPkpt6H3sj1SpFs3dl9-5" value="Criar não conformidades" style="rounded=1;whiteSpace=wrap;html=1;" vertex="1" parent="1">
          <mxGeometry x="180" y="380" width="120" height="60" as="geometry" />
        </mxCell>
        <mxCell id="0wPkpt6H3sj1SpFs3dl9-8" style="edgeStyle=orthogonalEdgeStyle;rounded=0;orthogonalLoop=1;jettySize=auto;html=1;entryX=-0.007;entryY=0.576;entryDx=0;entryDy=0;entryPerimeter=0;" edge="1" parent="1" source="4nd8rl6Zj98e2TrmvBRe-2" target="0wPkpt6H3sj1SpFs3dl9-1">
          <mxGeometry relative="1" as="geometry" />
        </mxCell>
        <mxCell id="apxjco7FhPxjEGnBSHkM-1" value="Buscar equipamento" style="rounded=1;whiteSpace=wrap;html=1;" vertex="1" parent="1">
          <mxGeometry x="190" y="40" width="120" height="60" as="geometry" />
        </mxCell>
        <mxCell id="apxjco7FhPxjEGnBSHkM-2" value="Buscar equipamento" style="rounded=1;whiteSpace=wrap;html=1;" vertex="1" parent="1">
          <mxGeometry x="180" y="160" width="120" height="60" as="geometry" />
        </mxCell>
        <mxCell id="0O_cjE4SGSH6WGL7jXQj-1" value="Laudar relatórios" style="rounded=1;whiteSpace=wrap;html=1;" vertex="1" parent="1">
          <mxGeometry x="180" y="860" width="120" height="60" as="geometry" />
        </mxCell>
        <mxCell id="6WU-mcqa6msjAg0PFa0A-1" value="Criar check list" style="rounded=1;whiteSpace=wrap;html=1;" vertex="1" parent="1">
          <mxGeometry x="180" y="460" width="120" height="60" as="geometry" />
        </mxCell>
      </root>
    </mxGraphModel>
  </diagram>
  <diagram id="Aj1M797D4Jt9X8wMELvQ" name="Fluxograma">
    <mxGraphModel dx="1257" dy="744" grid="1" gridSize="10" guides="1" tooltips="1" connect="1" arrows="1" fold="1" page="1" pageScale="1" pageWidth="827" pageHeight="1169" math="0" shadow="0">
      <root>
        <mxCell id="0" />
        <mxCell id="1" parent="0" />
        <mxCell id="z2BvnoyrtIycp-BBu-NQ-1" value="Supervisor" style="swimlane;horizontal=0;whiteSpace=wrap;html=1;" vertex="1" parent="1">
          <mxGeometry x="20" y="30" width="1580" height="200" as="geometry" />
        </mxCell>
        <mxCell id="z2BvnoyrtIycp-BBu-NQ-4" value="Cadastrar equipamento" style="rounded=1;whiteSpace=wrap;html=1;arcSize=40;fontColor=#000000;fillColor=#ffffc0;strokeColor=#ff0000;" vertex="1" parent="z2BvnoyrtIycp-BBu-NQ-1">
          <mxGeometry x="140" y="60" width="120" height="40" as="geometry" />
        </mxCell>
        <mxCell id="z2BvnoyrtIycp-BBu-NQ-5" value="" style="edgeStyle=orthogonalEdgeStyle;html=1;verticalAlign=bottom;endArrow=open;endSize=8;strokeColor=#ff0000;rounded=0;entryX=0;entryY=0.5;entryDx=0;entryDy=0;" edge="1" source="z2BvnoyrtIycp-BBu-NQ-4" parent="z2BvnoyrtIycp-BBu-NQ-1" target="z2BvnoyrtIycp-BBu-NQ-6">
          <mxGeometry relative="1" as="geometry">
            <mxPoint x="120" y="160" as="targetPoint" />
          </mxGeometry>
        </mxCell>
        <mxCell id="z2BvnoyrtIycp-BBu-NQ-6" value="Vincular um inspetor" style="rounded=1;whiteSpace=wrap;html=1;arcSize=40;fontColor=#000000;fillColor=#ffffc0;strokeColor=#ff0000;" vertex="1" parent="z2BvnoyrtIycp-BBu-NQ-1">
          <mxGeometry x="320" y="60" width="120" height="40" as="geometry" />
        </mxCell>
        <mxCell id="FbX11l7ZgamxJjM3y8FK-26" value="" style="ellipse;html=1;shape=startState;fillColor=#000000;strokeColor=#ff0000;" vertex="1" parent="z2BvnoyrtIycp-BBu-NQ-1">
          <mxGeometry x="30" y="65" width="30" height="30" as="geometry" />
        </mxCell>
        <mxCell id="FbX11l7ZgamxJjM3y8FK-27" value="" style="edgeStyle=orthogonalEdgeStyle;html=1;verticalAlign=bottom;endArrow=open;endSize=8;strokeColor=#ff0000;rounded=0;entryX=0;entryY=0.5;entryDx=0;entryDy=0;" edge="1" source="FbX11l7ZgamxJjM3y8FK-26" parent="z2BvnoyrtIycp-BBu-NQ-1" target="z2BvnoyrtIycp-BBu-NQ-4">
          <mxGeometry relative="1" as="geometry">
            <mxPoint x="45" y="170" as="targetPoint" />
          </mxGeometry>
        </mxCell>
        <mxCell id="z2BvnoyrtIycp-BBu-NQ-2" value="Inspetor" style="swimlane;horizontal=0;whiteSpace=wrap;html=1;" vertex="1" parent="1">
          <mxGeometry x="20" y="230" width="1580" height="270" as="geometry" />
        </mxCell>
        <mxCell id="FbX11l7ZgamxJjM3y8FK-1" value="Status pendente" style="rounded=1;whiteSpace=wrap;html=1;arcSize=40;fontColor=#000000;fillColor=#ffffc0;strokeColor=#ff0000;" vertex="1" parent="z2BvnoyrtIycp-BBu-NQ-2">
          <mxGeometry x="260" y="70" width="120" height="40" as="geometry" />
        </mxCell>
        <mxCell id="FbX11l7ZgamxJjM3y8FK-6" style="edgeStyle=orthogonalEdgeStyle;rounded=0;orthogonalLoop=1;jettySize=auto;html=1;entryX=0;entryY=0.5;entryDx=0;entryDy=0;" edge="1" parent="z2BvnoyrtIycp-BBu-NQ-2" source="FbX11l7ZgamxJjM3y8FK-3" target="FbX11l7ZgamxJjM3y8FK-4">
          <mxGeometry relative="1" as="geometry" />
        </mxCell>
        <mxCell id="FbX11l7ZgamxJjM3y8FK-3" value="mover status para em andamento" style="rounded=1;whiteSpace=wrap;html=1;arcSize=40;fontColor=#000000;fillColor=#ffffc0;strokeColor=#ff0000;" vertex="1" parent="z2BvnoyrtIycp-BBu-NQ-2">
          <mxGeometry x="260" y="150" width="120" height="40" as="geometry" />
        </mxCell>
        <mxCell id="FbX11l7ZgamxJjM3y8FK-2" value="" style="edgeStyle=orthogonalEdgeStyle;html=1;verticalAlign=bottom;endArrow=open;endSize=8;strokeColor=#ff0000;rounded=0;" edge="1" source="FbX11l7ZgamxJjM3y8FK-1" parent="z2BvnoyrtIycp-BBu-NQ-2" target="FbX11l7ZgamxJjM3y8FK-3">
          <mxGeometry relative="1" as="geometry">
            <mxPoint x="420" y="90" as="targetPoint" />
          </mxGeometry>
        </mxCell>
        <mxCell id="FbX11l7ZgamxJjM3y8FK-10" style="edgeStyle=orthogonalEdgeStyle;rounded=0;orthogonalLoop=1;jettySize=auto;html=1;entryX=0;entryY=0.5;entryDx=0;entryDy=0;" edge="1" parent="z2BvnoyrtIycp-BBu-NQ-2" source="FbX11l7ZgamxJjM3y8FK-4" target="FbX11l7ZgamxJjM3y8FK-7">
          <mxGeometry relative="1" as="geometry" />
        </mxCell>
        <mxCell id="FbX11l7ZgamxJjM3y8FK-4" value="Laudar equipamento" style="rounded=1;whiteSpace=wrap;html=1;arcSize=40;fontColor=#000000;fillColor=#ffffc0;strokeColor=#ff0000;" vertex="1" parent="z2BvnoyrtIycp-BBu-NQ-2">
          <mxGeometry x="430" y="150" width="120" height="40" as="geometry" />
        </mxCell>
        <mxCell id="FbX11l7ZgamxJjM3y8FK-7" value="Laudo ok?" style="rhombus;whiteSpace=wrap;html=1;fontColor=#000000;fillColor=#ffffc0;strokeColor=#ff0000;" vertex="1" parent="z2BvnoyrtIycp-BBu-NQ-2">
          <mxGeometry x="600" y="150" width="80" height="40" as="geometry" />
        </mxCell>
        <mxCell id="FbX11l7ZgamxJjM3y8FK-14" style="edgeStyle=orthogonalEdgeStyle;rounded=0;orthogonalLoop=1;jettySize=auto;html=1;" edge="1" parent="z2BvnoyrtIycp-BBu-NQ-2" source="FbX11l7ZgamxJjM3y8FK-11" target="FbX11l7ZgamxJjM3y8FK-12">
          <mxGeometry relative="1" as="geometry" />
        </mxCell>
        <mxCell id="FbX11l7ZgamxJjM3y8FK-11" value="Abrir não conformidade" style="rounded=1;whiteSpace=wrap;html=1;arcSize=40;fontColor=#000000;fillColor=#ffffc0;strokeColor=#ff0000;" vertex="1" parent="z2BvnoyrtIycp-BBu-NQ-2">
          <mxGeometry x="580" y="60" width="120" height="40" as="geometry" />
        </mxCell>
        <mxCell id="FbX11l7ZgamxJjM3y8FK-8" value="no" style="edgeStyle=orthogonalEdgeStyle;html=1;align=left;verticalAlign=bottom;endArrow=open;endSize=8;strokeColor=#ff0000;rounded=0;" edge="1" source="FbX11l7ZgamxJjM3y8FK-7" parent="z2BvnoyrtIycp-BBu-NQ-2" target="FbX11l7ZgamxJjM3y8FK-11">
          <mxGeometry x="-1" relative="1" as="geometry">
            <mxPoint x="780" y="160" as="targetPoint" />
          </mxGeometry>
        </mxCell>
        <mxCell id="FbX11l7ZgamxJjM3y8FK-12" value="Alterar status para não conforme" style="rounded=1;whiteSpace=wrap;html=1;arcSize=40;fontColor=#000000;fillColor=#ffffc0;strokeColor=#ff0000;" vertex="1" parent="z2BvnoyrtIycp-BBu-NQ-2">
          <mxGeometry x="750" y="60" width="120" height="40" as="geometry" />
        </mxCell>
        <mxCell id="FbX11l7ZgamxJjM3y8FK-17" style="edgeStyle=orthogonalEdgeStyle;rounded=0;orthogonalLoop=1;jettySize=auto;html=1;entryX=0;entryY=0.5;entryDx=0;entryDy=0;" edge="1" parent="z2BvnoyrtIycp-BBu-NQ-2" source="FbX11l7ZgamxJjM3y8FK-15" target="FbX11l7ZgamxJjM3y8FK-16">
          <mxGeometry relative="1" as="geometry" />
        </mxCell>
        <mxCell id="FbX11l7ZgamxJjM3y8FK-15" value="finaliza a inspeção" style="rounded=1;whiteSpace=wrap;html=1;arcSize=40;fontColor=#000000;fillColor=#ffffc0;strokeColor=#ff0000;" vertex="1" parent="z2BvnoyrtIycp-BBu-NQ-2">
          <mxGeometry x="750.0047826086955" y="150" width="120" height="40" as="geometry" />
        </mxCell>
        <mxCell id="FbX11l7ZgamxJjM3y8FK-9" value="yes" style="edgeStyle=orthogonalEdgeStyle;html=1;align=left;verticalAlign=top;endArrow=open;endSize=8;strokeColor=#ff0000;rounded=0;" edge="1" source="FbX11l7ZgamxJjM3y8FK-7" parent="z2BvnoyrtIycp-BBu-NQ-2" target="FbX11l7ZgamxJjM3y8FK-15">
          <mxGeometry x="-1" relative="1" as="geometry">
            <mxPoint x="740.4347826086956" y="170" as="targetPoint" />
          </mxGeometry>
        </mxCell>
        <mxCell id="FbX11l7ZgamxJjM3y8FK-20" style="edgeStyle=orthogonalEdgeStyle;rounded=0;orthogonalLoop=1;jettySize=auto;html=1;" edge="1" parent="z2BvnoyrtIycp-BBu-NQ-2" source="FbX11l7ZgamxJjM3y8FK-16" target="FbX11l7ZgamxJjM3y8FK-18">
          <mxGeometry relative="1" as="geometry" />
        </mxCell>
        <mxCell id="FbX11l7ZgamxJjM3y8FK-16" value="Alterar status para inspecionado" style="rounded=1;whiteSpace=wrap;html=1;arcSize=40;fontColor=#000000;fillColor=#ffffc0;strokeColor=#ff0000;" vertex="1" parent="z2BvnoyrtIycp-BBu-NQ-2">
          <mxGeometry x="910" y="150" width="120" height="40" as="geometry" />
        </mxCell>
        <mxCell id="FbX11l7ZgamxJjM3y8FK-18" value="Imprime relatorio" style="rounded=1;whiteSpace=wrap;html=1;arcSize=40;fontColor=#000000;fillColor=#ffffc0;strokeColor=#ff0000;" vertex="1" parent="z2BvnoyrtIycp-BBu-NQ-2">
          <mxGeometry x="1070" y="150" width="120" height="40" as="geometry" />
        </mxCell>
        <mxCell id="FbX11l7ZgamxJjM3y8FK-21" value="imprime rnc" style="rounded=1;whiteSpace=wrap;html=1;arcSize=40;fontColor=#000000;fillColor=#ffffc0;strokeColor=#ff0000;" vertex="1" parent="z2BvnoyrtIycp-BBu-NQ-2">
          <mxGeometry x="920" y="60" width="120" height="40" as="geometry" />
        </mxCell>
        <mxCell id="FbX11l7ZgamxJjM3y8FK-13" value="" style="edgeStyle=orthogonalEdgeStyle;html=1;verticalAlign=bottom;endArrow=open;endSize=8;strokeColor=#ff0000;rounded=0;" edge="1" source="FbX11l7ZgamxJjM3y8FK-12" parent="z2BvnoyrtIycp-BBu-NQ-2" target="FbX11l7ZgamxJjM3y8FK-21">
          <mxGeometry relative="1" as="geometry">
            <mxPoint x="950" y="80" as="targetPoint" />
          </mxGeometry>
        </mxCell>
        <mxCell id="FbX11l7ZgamxJjM3y8FK-22" style="edgeStyle=orthogonalEdgeStyle;rounded=0;orthogonalLoop=1;jettySize=auto;html=1;entryX=0.333;entryY=0;entryDx=0;entryDy=0;entryPerimeter=0;" edge="1" parent="z2BvnoyrtIycp-BBu-NQ-2" source="FbX11l7ZgamxJjM3y8FK-21" target="FbX11l7ZgamxJjM3y8FK-4">
          <mxGeometry relative="1" as="geometry">
            <Array as="points">
              <mxPoint x="980" y="30" />
              <mxPoint x="470" y="30" />
            </Array>
          </mxGeometry>
        </mxCell>
        <mxCell id="z2BvnoyrtIycp-BBu-NQ-3" value="Gestor kpi" style="swimlane;horizontal=0;whiteSpace=wrap;html=1;" vertex="1" parent="1">
          <mxGeometry x="20" y="500" width="1580" height="200" as="geometry" />
        </mxCell>
        <mxCell id="FbX11l7ZgamxJjM3y8FK-24" value="" style="ellipse;html=1;shape=endState;fillColor=#000000;strokeColor=#ff0000;" vertex="1" parent="z2BvnoyrtIycp-BBu-NQ-3">
          <mxGeometry x="955" y="60" width="30" height="30" as="geometry" />
        </mxCell>
        <mxCell id="z2BvnoyrtIycp-BBu-NQ-7" value="" style="edgeStyle=orthogonalEdgeStyle;html=1;verticalAlign=bottom;endArrow=open;endSize=8;strokeColor=#ff0000;rounded=0;entryX=0.417;entryY=-0.05;entryDx=0;entryDy=0;entryPerimeter=0;" edge="1" source="z2BvnoyrtIycp-BBu-NQ-6" parent="1" target="FbX11l7ZgamxJjM3y8FK-1">
          <mxGeometry relative="1" as="geometry">
            <mxPoint x="330" y="260" as="targetPoint" />
          </mxGeometry>
        </mxCell>
        <mxCell id="FbX11l7ZgamxJjM3y8FK-25" style="edgeStyle=orthogonalEdgeStyle;rounded=0;orthogonalLoop=1;jettySize=auto;html=1;" edge="1" parent="1" source="FbX11l7ZgamxJjM3y8FK-23" target="FbX11l7ZgamxJjM3y8FK-24">
          <mxGeometry relative="1" as="geometry" />
        </mxCell>
        <mxCell id="FbX11l7ZgamxJjM3y8FK-23" value="Gera relatorios de KPI" style="rounded=1;whiteSpace=wrap;html=1;arcSize=40;fontColor=#000000;fillColor=#ffffc0;strokeColor=#ff0000;" vertex="1" parent="1">
          <mxGeometry x="1090" y="550" width="120" height="40" as="geometry" />
        </mxCell>
        <mxCell id="FbX11l7ZgamxJjM3y8FK-19" value="" style="edgeStyle=orthogonalEdgeStyle;html=1;verticalAlign=bottom;endArrow=open;endSize=8;strokeColor=#ff0000;rounded=0;" edge="1" source="FbX11l7ZgamxJjM3y8FK-18" parent="1" target="FbX11l7ZgamxJjM3y8FK-23">
          <mxGeometry relative="1" as="geometry">
            <mxPoint x="1150" y="570" as="targetPoint" />
          </mxGeometry>
        </mxCell>
      </root>
    </mxGraphModel>
  </diagram>
  <diagram id="m-hUbl6bbzh9AwW-bgYq" name="Diagrama de classe">
    <mxGraphModel dx="1760" dy="1042" grid="1" gridSize="10" guides="1" tooltips="1" connect="1" arrows="1" fold="1" page="1" pageScale="1" pageWidth="827" pageHeight="1169" math="0" shadow="0">
      <root>
        <mxCell id="0" />
        <mxCell id="1" parent="0" />
        <mxCell id="EDJxCNstEKyhmiNfr5sV-1" value="usuario" style="swimlane;fontStyle=0;childLayout=stackLayout;horizontal=1;startSize=26;fillColor=none;horizontalStack=0;resizeParent=1;resizeParentMax=0;resizeLast=0;collapsible=1;marginBottom=0;whiteSpace=wrap;html=1;" vertex="1" parent="1">
          <mxGeometry x="260" y="240" width="140" height="104" as="geometry" />
        </mxCell>
        <mxCell id="EDJxCNstEKyhmiNfr5sV-2" value="+ field: type" style="text;strokeColor=none;fillColor=none;align=left;verticalAlign=top;spacingLeft=4;spacingRight=4;overflow=hidden;rotatable=0;points=[[0,0.5],[1,0.5]];portConstraint=eastwest;whiteSpace=wrap;html=1;" vertex="1" parent="EDJxCNstEKyhmiNfr5sV-1">
          <mxGeometry y="26" width="140" height="26" as="geometry" />
        </mxCell>
        <mxCell id="EDJxCNstEKyhmiNfr5sV-3" value="+ field: type" style="text;strokeColor=none;fillColor=none;align=left;verticalAlign=top;spacingLeft=4;spacingRight=4;overflow=hidden;rotatable=0;points=[[0,0.5],[1,0.5]];portConstraint=eastwest;whiteSpace=wrap;html=1;" vertex="1" parent="EDJxCNstEKyhmiNfr5sV-1">
          <mxGeometry y="52" width="140" height="26" as="geometry" />
        </mxCell>
        <mxCell id="EDJxCNstEKyhmiNfr5sV-4" value="+ field: type" style="text;strokeColor=none;fillColor=none;align=left;verticalAlign=top;spacingLeft=4;spacingRight=4;overflow=hidden;rotatable=0;points=[[0,0.5],[1,0.5]];portConstraint=eastwest;whiteSpace=wrap;html=1;" vertex="1" parent="EDJxCNstEKyhmiNfr5sV-1">
          <mxGeometry y="78" width="140" height="26" as="geometry" />
        </mxCell>
        <mxCell id="xhqZjStJutzh6jZHeKQB-1" value="funcao" style="swimlane;fontStyle=0;childLayout=stackLayout;horizontal=1;startSize=26;fillColor=none;horizontalStack=0;resizeParent=1;resizeParentMax=0;resizeLast=0;collapsible=1;marginBottom=0;whiteSpace=wrap;html=1;" vertex="1" parent="1">
          <mxGeometry x="510" y="240" width="140" height="104" as="geometry" />
        </mxCell>
        <mxCell id="xhqZjStJutzh6jZHeKQB-2" value="+ field: type" style="text;strokeColor=none;fillColor=none;align=left;verticalAlign=top;spacingLeft=4;spacingRight=4;overflow=hidden;rotatable=0;points=[[0,0.5],[1,0.5]];portConstraint=eastwest;whiteSpace=wrap;html=1;" vertex="1" parent="xhqZjStJutzh6jZHeKQB-1">
          <mxGeometry y="26" width="140" height="26" as="geometry" />
        </mxCell>
        <mxCell id="xhqZjStJutzh6jZHeKQB-3" value="+ field: type" style="text;strokeColor=none;fillColor=none;align=left;verticalAlign=top;spacingLeft=4;spacingRight=4;overflow=hidden;rotatable=0;points=[[0,0.5],[1,0.5]];portConstraint=eastwest;whiteSpace=wrap;html=1;" vertex="1" parent="xhqZjStJutzh6jZHeKQB-1">
          <mxGeometry y="52" width="140" height="26" as="geometry" />
        </mxCell>
        <mxCell id="xhqZjStJutzh6jZHeKQB-4" value="+ field: type" style="text;strokeColor=none;fillColor=none;align=left;verticalAlign=top;spacingLeft=4;spacingRight=4;overflow=hidden;rotatable=0;points=[[0,0.5],[1,0.5]];portConstraint=eastwest;whiteSpace=wrap;html=1;" vertex="1" parent="xhqZjStJutzh6jZHeKQB-1">
          <mxGeometry y="78" width="140" height="26" as="geometry" />
        </mxCell>
        <mxCell id="xhqZjStJutzh6jZHeKQB-5" style="edgeStyle=orthogonalEdgeStyle;rounded=0;orthogonalLoop=1;jettySize=auto;html=1;entryX=0;entryY=0.5;entryDx=0;entryDy=0;" edge="1" parent="1" source="EDJxCNstEKyhmiNfr5sV-2" target="xhqZjStJutzh6jZHeKQB-2">
          <mxGeometry relative="1" as="geometry" />
        </mxCell>
        <mxCell id="xhqZjStJutzh6jZHeKQB-6" value="Permissoes" style="swimlane;fontStyle=0;childLayout=stackLayout;horizontal=1;startSize=26;fillColor=none;horizontalStack=0;resizeParent=1;resizeParentMax=0;resizeLast=0;collapsible=1;marginBottom=0;whiteSpace=wrap;html=1;" vertex="1" parent="1">
          <mxGeometry x="740" y="240" width="140" height="104" as="geometry" />
        </mxCell>
        <mxCell id="xhqZjStJutzh6jZHeKQB-7" value="+ field: type" style="text;strokeColor=none;fillColor=none;align=left;verticalAlign=top;spacingLeft=4;spacingRight=4;overflow=hidden;rotatable=0;points=[[0,0.5],[1,0.5]];portConstraint=eastwest;whiteSpace=wrap;html=1;" vertex="1" parent="xhqZjStJutzh6jZHeKQB-6">
          <mxGeometry y="26" width="140" height="26" as="geometry" />
        </mxCell>
        <mxCell id="xhqZjStJutzh6jZHeKQB-8" value="+ field: type" style="text;strokeColor=none;fillColor=none;align=left;verticalAlign=top;spacingLeft=4;spacingRight=4;overflow=hidden;rotatable=0;points=[[0,0.5],[1,0.5]];portConstraint=eastwest;whiteSpace=wrap;html=1;" vertex="1" parent="xhqZjStJutzh6jZHeKQB-6">
          <mxGeometry y="52" width="140" height="26" as="geometry" />
        </mxCell>
        <mxCell id="xhqZjStJutzh6jZHeKQB-9" value="+ field: type" style="text;strokeColor=none;fillColor=none;align=left;verticalAlign=top;spacingLeft=4;spacingRight=4;overflow=hidden;rotatable=0;points=[[0,0.5],[1,0.5]];portConstraint=eastwest;whiteSpace=wrap;html=1;" vertex="1" parent="xhqZjStJutzh6jZHeKQB-6">
          <mxGeometry y="78" width="140" height="26" as="geometry" />
        </mxCell>
        <mxCell id="xhqZjStJutzh6jZHeKQB-10" style="edgeStyle=orthogonalEdgeStyle;rounded=0;orthogonalLoop=1;jettySize=auto;html=1;entryX=0;entryY=0.5;entryDx=0;entryDy=0;exitX=1;exitY=0.5;exitDx=0;exitDy=0;" edge="1" parent="1" source="xhqZjStJutzh6jZHeKQB-3" target="xhqZjStJutzh6jZHeKQB-6">
          <mxGeometry relative="1" as="geometry" />
        </mxCell>
        <mxCell id="xhqZjStJutzh6jZHeKQB-11" value="UsuarioService" style="swimlane;whiteSpace=wrap;html=1;" vertex="1" parent="1">
          <mxGeometry x="230" y="130" width="720" height="310" as="geometry" />
        </mxCell>
        <mxCell id="xhqZjStJutzh6jZHeKQB-16" value="Equipamento" style="swimlane;whiteSpace=wrap;html=1;" vertex="1" parent="1">
          <mxGeometry x="1120" y="550" width="720" height="444" as="geometry" />
        </mxCell>
        <mxCell id="xhqZjStJutzh6jZHeKQB-12" value="Equipamento" style="swimlane;fontStyle=0;childLayout=stackLayout;horizontal=1;startSize=26;fillColor=none;horizontalStack=0;resizeParent=1;resizeParentMax=0;resizeLast=0;collapsible=1;marginBottom=0;whiteSpace=wrap;html=1;" vertex="1" parent="xhqZjStJutzh6jZHeKQB-16">
          <mxGeometry x="30" y="50" width="140" height="104" as="geometry" />
        </mxCell>
        <mxCell id="xhqZjStJutzh6jZHeKQB-13" value="+ field: type" style="text;strokeColor=none;fillColor=none;align=left;verticalAlign=top;spacingLeft=4;spacingRight=4;overflow=hidden;rotatable=0;points=[[0,0.5],[1,0.5]];portConstraint=eastwest;whiteSpace=wrap;html=1;" vertex="1" parent="xhqZjStJutzh6jZHeKQB-12">
          <mxGeometry y="26" width="140" height="26" as="geometry" />
        </mxCell>
        <mxCell id="xhqZjStJutzh6jZHeKQB-14" value="+ field: type" style="text;strokeColor=none;fillColor=none;align=left;verticalAlign=top;spacingLeft=4;spacingRight=4;overflow=hidden;rotatable=0;points=[[0,0.5],[1,0.5]];portConstraint=eastwest;whiteSpace=wrap;html=1;" vertex="1" parent="xhqZjStJutzh6jZHeKQB-12">
          <mxGeometry y="52" width="140" height="26" as="geometry" />
        </mxCell>
        <mxCell id="xhqZjStJutzh6jZHeKQB-15" value="+ field: type" style="text;strokeColor=none;fillColor=none;align=left;verticalAlign=top;spacingLeft=4;spacingRight=4;overflow=hidden;rotatable=0;points=[[0,0.5],[1,0.5]];portConstraint=eastwest;whiteSpace=wrap;html=1;" vertex="1" parent="xhqZjStJutzh6jZHeKQB-12">
          <mxGeometry y="78" width="140" height="26" as="geometry" />
        </mxCell>
        <mxCell id="E04hdWUqzmhMeJhWMsV--21" value="Nota fiscal" style="swimlane;fontStyle=0;childLayout=stackLayout;horizontal=1;startSize=26;fillColor=none;horizontalStack=0;resizeParent=1;resizeParentMax=0;resizeLast=0;collapsible=1;marginBottom=0;whiteSpace=wrap;html=1;" vertex="1" parent="xhqZjStJutzh6jZHeKQB-16">
          <mxGeometry x="480" y="140" width="140" height="104" as="geometry" />
        </mxCell>
        <mxCell id="E04hdWUqzmhMeJhWMsV--22" value="+ field: type" style="text;strokeColor=none;fillColor=none;align=left;verticalAlign=top;spacingLeft=4;spacingRight=4;overflow=hidden;rotatable=0;points=[[0,0.5],[1,0.5]];portConstraint=eastwest;whiteSpace=wrap;html=1;" vertex="1" parent="E04hdWUqzmhMeJhWMsV--21">
          <mxGeometry y="26" width="140" height="26" as="geometry" />
        </mxCell>
        <mxCell id="E04hdWUqzmhMeJhWMsV--23" value="+ field: type" style="text;strokeColor=none;fillColor=none;align=left;verticalAlign=top;spacingLeft=4;spacingRight=4;overflow=hidden;rotatable=0;points=[[0,0.5],[1,0.5]];portConstraint=eastwest;whiteSpace=wrap;html=1;" vertex="1" parent="E04hdWUqzmhMeJhWMsV--21">
          <mxGeometry y="52" width="140" height="26" as="geometry" />
        </mxCell>
        <mxCell id="E04hdWUqzmhMeJhWMsV--24" value="+ field: type" style="text;strokeColor=none;fillColor=none;align=left;verticalAlign=top;spacingLeft=4;spacingRight=4;overflow=hidden;rotatable=0;points=[[0,0.5],[1,0.5]];portConstraint=eastwest;whiteSpace=wrap;html=1;" vertex="1" parent="E04hdWUqzmhMeJhWMsV--21">
          <mxGeometry y="78" width="140" height="26" as="geometry" />
        </mxCell>
        <mxCell id="E04hdWUqzmhMeJhWMsV--25" style="edgeStyle=orthogonalEdgeStyle;rounded=0;orthogonalLoop=1;jettySize=auto;html=1;entryX=0.019;entryY=0.128;entryDx=0;entryDy=0;entryPerimeter=0;" edge="1" parent="xhqZjStJutzh6jZHeKQB-16" source="xhqZjStJutzh6jZHeKQB-14" target="E04hdWUqzmhMeJhWMsV--23">
          <mxGeometry relative="1" as="geometry">
            <Array as="points">
              <mxPoint x="240" y="115" />
              <mxPoint x="240" y="195" />
            </Array>
          </mxGeometry>
        </mxCell>
        <mxCell id="E04hdWUqzmhMeJhWMsV--16" value="Cliente" style="swimlane;fontStyle=0;childLayout=stackLayout;horizontal=1;startSize=26;fillColor=none;horizontalStack=0;resizeParent=1;resizeParentMax=0;resizeLast=0;collapsible=1;marginBottom=0;whiteSpace=wrap;html=1;" vertex="1" parent="xhqZjStJutzh6jZHeKQB-16">
          <mxGeometry x="250" y="210" width="140" height="104" as="geometry" />
        </mxCell>
        <mxCell id="E04hdWUqzmhMeJhWMsV--17" value="+ field: type" style="text;strokeColor=none;fillColor=none;align=left;verticalAlign=top;spacingLeft=4;spacingRight=4;overflow=hidden;rotatable=0;points=[[0,0.5],[1,0.5]];portConstraint=eastwest;whiteSpace=wrap;html=1;" vertex="1" parent="E04hdWUqzmhMeJhWMsV--16">
          <mxGeometry y="26" width="140" height="26" as="geometry" />
        </mxCell>
        <mxCell id="E04hdWUqzmhMeJhWMsV--18" value="+ field: type" style="text;strokeColor=none;fillColor=none;align=left;verticalAlign=top;spacingLeft=4;spacingRight=4;overflow=hidden;rotatable=0;points=[[0,0.5],[1,0.5]];portConstraint=eastwest;whiteSpace=wrap;html=1;" vertex="1" parent="E04hdWUqzmhMeJhWMsV--16">
          <mxGeometry y="52" width="140" height="26" as="geometry" />
        </mxCell>
        <mxCell id="E04hdWUqzmhMeJhWMsV--19" value="+ field: type" style="text;strokeColor=none;fillColor=none;align=left;verticalAlign=top;spacingLeft=4;spacingRight=4;overflow=hidden;rotatable=0;points=[[0,0.5],[1,0.5]];portConstraint=eastwest;whiteSpace=wrap;html=1;" vertex="1" parent="E04hdWUqzmhMeJhWMsV--16">
          <mxGeometry y="78" width="140" height="26" as="geometry" />
        </mxCell>
        <mxCell id="E04hdWUqzmhMeJhWMsV--20" style="edgeStyle=orthogonalEdgeStyle;rounded=0;orthogonalLoop=1;jettySize=auto;html=1;entryX=0.021;entryY=0.128;entryDx=0;entryDy=0;entryPerimeter=0;" edge="1" parent="xhqZjStJutzh6jZHeKQB-16" source="xhqZjStJutzh6jZHeKQB-15" target="E04hdWUqzmhMeJhWMsV--18">
          <mxGeometry relative="1" as="geometry" />
        </mxCell>
        <mxCell id="E04hdWUqzmhMeJhWMsV--27" value="Template" style="swimlane;fontStyle=0;childLayout=stackLayout;horizontal=1;startSize=26;fillColor=none;horizontalStack=0;resizeParent=1;resizeParentMax=0;resizeLast=0;collapsible=1;marginBottom=0;whiteSpace=wrap;html=1;" vertex="1" parent="xhqZjStJutzh6jZHeKQB-16">
          <mxGeometry x="460" y="310" width="140" height="104" as="geometry" />
        </mxCell>
        <mxCell id="E04hdWUqzmhMeJhWMsV--28" value="+ field: type" style="text;strokeColor=none;fillColor=none;align=left;verticalAlign=top;spacingLeft=4;spacingRight=4;overflow=hidden;rotatable=0;points=[[0,0.5],[1,0.5]];portConstraint=eastwest;whiteSpace=wrap;html=1;" vertex="1" parent="E04hdWUqzmhMeJhWMsV--27">
          <mxGeometry y="26" width="140" height="26" as="geometry" />
        </mxCell>
        <mxCell id="E04hdWUqzmhMeJhWMsV--29" value="+ field: type" style="text;strokeColor=none;fillColor=none;align=left;verticalAlign=top;spacingLeft=4;spacingRight=4;overflow=hidden;rotatable=0;points=[[0,0.5],[1,0.5]];portConstraint=eastwest;whiteSpace=wrap;html=1;" vertex="1" parent="E04hdWUqzmhMeJhWMsV--27">
          <mxGeometry y="52" width="140" height="26" as="geometry" />
        </mxCell>
        <mxCell id="E04hdWUqzmhMeJhWMsV--30" value="+ field: type" style="text;strokeColor=none;fillColor=none;align=left;verticalAlign=top;spacingLeft=4;spacingRight=4;overflow=hidden;rotatable=0;points=[[0,0.5],[1,0.5]];portConstraint=eastwest;whiteSpace=wrap;html=1;" vertex="1" parent="E04hdWUqzmhMeJhWMsV--27">
          <mxGeometry y="78" width="140" height="26" as="geometry" />
        </mxCell>
        <mxCell id="E04hdWUqzmhMeJhWMsV--31" style="edgeStyle=orthogonalEdgeStyle;rounded=0;orthogonalLoop=1;jettySize=auto;html=1;entryX=0;entryY=0.5;entryDx=0;entryDy=0;" edge="1" parent="xhqZjStJutzh6jZHeKQB-16" source="xhqZjStJutzh6jZHeKQB-15" target="E04hdWUqzmhMeJhWMsV--29">
          <mxGeometry relative="1" as="geometry">
            <Array as="points">
              <mxPoint x="160" y="370" />
              <mxPoint x="460" y="370" />
            </Array>
          </mxGeometry>
        </mxCell>
        <mxCell id="xhqZjStJutzh6jZHeKQB-17" value="Inspeção" style="swimlane;whiteSpace=wrap;html=1;" vertex="1" parent="1">
          <mxGeometry x="240" y="1169" width="820" height="781" as="geometry" />
        </mxCell>
        <mxCell id="E04hdWUqzmhMeJhWMsV--15" style="edgeStyle=orthogonalEdgeStyle;rounded=0;orthogonalLoop=1;jettySize=auto;html=1;entryX=0;entryY=0.5;entryDx=0;entryDy=0;" edge="1" parent="xhqZjStJutzh6jZHeKQB-17" source="xhqZjStJutzh6jZHeKQB-18" target="E04hdWUqzmhMeJhWMsV--13">
          <mxGeometry relative="1" as="geometry" />
        </mxCell>
        <mxCell id="E04hdWUqzmhMeJhWMsV--41" style="edgeStyle=orthogonalEdgeStyle;rounded=0;orthogonalLoop=1;jettySize=auto;html=1;entryX=0;entryY=0.5;entryDx=0;entryDy=0;" edge="1" parent="xhqZjStJutzh6jZHeKQB-17" source="xhqZjStJutzh6jZHeKQB-18" target="E04hdWUqzmhMeJhWMsV--38">
          <mxGeometry relative="1" as="geometry" />
        </mxCell>
        <mxCell id="xhqZjStJutzh6jZHeKQB-18" value="Inspecao" style="swimlane;fontStyle=0;childLayout=stackLayout;horizontal=1;startSize=26;fillColor=none;horizontalStack=0;resizeParent=1;resizeParentMax=0;resizeLast=0;collapsible=1;marginBottom=0;whiteSpace=wrap;html=1;" vertex="1" parent="xhqZjStJutzh6jZHeKQB-17">
          <mxGeometry x="30" y="70" width="140" height="104" as="geometry" />
        </mxCell>
        <mxCell id="xhqZjStJutzh6jZHeKQB-19" value="+ field: type" style="text;strokeColor=none;fillColor=none;align=left;verticalAlign=top;spacingLeft=4;spacingRight=4;overflow=hidden;rotatable=0;points=[[0,0.5],[1,0.5]];portConstraint=eastwest;whiteSpace=wrap;html=1;" vertex="1" parent="xhqZjStJutzh6jZHeKQB-18">
          <mxGeometry y="26" width="140" height="26" as="geometry" />
        </mxCell>
        <mxCell id="xhqZjStJutzh6jZHeKQB-20" value="+ field: type" style="text;strokeColor=none;fillColor=none;align=left;verticalAlign=top;spacingLeft=4;spacingRight=4;overflow=hidden;rotatable=0;points=[[0,0.5],[1,0.5]];portConstraint=eastwest;whiteSpace=wrap;html=1;" vertex="1" parent="xhqZjStJutzh6jZHeKQB-18">
          <mxGeometry y="52" width="140" height="26" as="geometry" />
        </mxCell>
        <mxCell id="xhqZjStJutzh6jZHeKQB-21" value="+ field: type" style="text;strokeColor=none;fillColor=none;align=left;verticalAlign=top;spacingLeft=4;spacingRight=4;overflow=hidden;rotatable=0;points=[[0,0.5],[1,0.5]];portConstraint=eastwest;whiteSpace=wrap;html=1;" vertex="1" parent="xhqZjStJutzh6jZHeKQB-18">
          <mxGeometry y="78" width="140" height="26" as="geometry" />
        </mxCell>
        <mxCell id="E04hdWUqzmhMeJhWMsV--6" value="Laudo" style="swimlane;fontStyle=0;childLayout=stackLayout;horizontal=1;startSize=26;fillColor=none;horizontalStack=0;resizeParent=1;resizeParentMax=0;resizeLast=0;collapsible=1;marginBottom=0;whiteSpace=wrap;html=1;" vertex="1" parent="xhqZjStJutzh6jZHeKQB-17">
          <mxGeometry x="260" y="41" width="140" height="104" as="geometry" />
        </mxCell>
        <mxCell id="E04hdWUqzmhMeJhWMsV--7" value="+ field: type" style="text;strokeColor=none;fillColor=none;align=left;verticalAlign=top;spacingLeft=4;spacingRight=4;overflow=hidden;rotatable=0;points=[[0,0.5],[1,0.5]];portConstraint=eastwest;whiteSpace=wrap;html=1;" vertex="1" parent="E04hdWUqzmhMeJhWMsV--6">
          <mxGeometry y="26" width="140" height="26" as="geometry" />
        </mxCell>
        <mxCell id="E04hdWUqzmhMeJhWMsV--8" value="+ field: type" style="text;strokeColor=none;fillColor=none;align=left;verticalAlign=top;spacingLeft=4;spacingRight=4;overflow=hidden;rotatable=0;points=[[0,0.5],[1,0.5]];portConstraint=eastwest;whiteSpace=wrap;html=1;" vertex="1" parent="E04hdWUqzmhMeJhWMsV--6">
          <mxGeometry y="52" width="140" height="26" as="geometry" />
        </mxCell>
        <mxCell id="E04hdWUqzmhMeJhWMsV--9" value="+ field: type" style="text;strokeColor=none;fillColor=none;align=left;verticalAlign=top;spacingLeft=4;spacingRight=4;overflow=hidden;rotatable=0;points=[[0,0.5],[1,0.5]];portConstraint=eastwest;whiteSpace=wrap;html=1;" vertex="1" parent="E04hdWUqzmhMeJhWMsV--6">
          <mxGeometry y="78" width="140" height="26" as="geometry" />
        </mxCell>
        <mxCell id="E04hdWUqzmhMeJhWMsV--10" style="edgeStyle=orthogonalEdgeStyle;rounded=0;orthogonalLoop=1;jettySize=auto;html=1;entryX=0;entryY=0.5;entryDx=0;entryDy=0;" edge="1" parent="xhqZjStJutzh6jZHeKQB-17" source="xhqZjStJutzh6jZHeKQB-20" target="E04hdWUqzmhMeJhWMsV--8">
          <mxGeometry relative="1" as="geometry" />
        </mxCell>
        <mxCell id="E04hdWUqzmhMeJhWMsV--11" value="RNC" style="swimlane;fontStyle=0;childLayout=stackLayout;horizontal=1;startSize=26;fillColor=none;horizontalStack=0;resizeParent=1;resizeParentMax=0;resizeLast=0;collapsible=1;marginBottom=0;whiteSpace=wrap;html=1;" vertex="1" parent="xhqZjStJutzh6jZHeKQB-17">
          <mxGeometry x="280" y="331" width="140" height="104" as="geometry" />
        </mxCell>
        <mxCell id="E04hdWUqzmhMeJhWMsV--12" value="+ field: type" style="text;strokeColor=none;fillColor=none;align=left;verticalAlign=top;spacingLeft=4;spacingRight=4;overflow=hidden;rotatable=0;points=[[0,0.5],[1,0.5]];portConstraint=eastwest;whiteSpace=wrap;html=1;" vertex="1" parent="E04hdWUqzmhMeJhWMsV--11">
          <mxGeometry y="26" width="140" height="26" as="geometry" />
        </mxCell>
        <mxCell id="E04hdWUqzmhMeJhWMsV--13" value="+ field: type" style="text;strokeColor=none;fillColor=none;align=left;verticalAlign=top;spacingLeft=4;spacingRight=4;overflow=hidden;rotatable=0;points=[[0,0.5],[1,0.5]];portConstraint=eastwest;whiteSpace=wrap;html=1;" vertex="1" parent="E04hdWUqzmhMeJhWMsV--11">
          <mxGeometry y="52" width="140" height="26" as="geometry" />
        </mxCell>
        <mxCell id="E04hdWUqzmhMeJhWMsV--14" value="+ field: type" style="text;strokeColor=none;fillColor=none;align=left;verticalAlign=top;spacingLeft=4;spacingRight=4;overflow=hidden;rotatable=0;points=[[0,0.5],[1,0.5]];portConstraint=eastwest;whiteSpace=wrap;html=1;" vertex="1" parent="E04hdWUqzmhMeJhWMsV--11">
          <mxGeometry y="78" width="140" height="26" as="geometry" />
        </mxCell>
        <mxCell id="E04hdWUqzmhMeJhWMsV--32" value="TIPO_INSPECAO" style="swimlane;fontStyle=0;childLayout=stackLayout;horizontal=1;startSize=26;fillColor=none;horizontalStack=0;resizeParent=1;resizeParentMax=0;resizeLast=0;collapsible=1;marginBottom=0;whiteSpace=wrap;html=1;" vertex="1" parent="xhqZjStJutzh6jZHeKQB-17">
          <mxGeometry x="500" y="171" width="140" height="104" as="geometry" />
        </mxCell>
        <mxCell id="E04hdWUqzmhMeJhWMsV--33" value="+ field: type" style="text;strokeColor=none;fillColor=none;align=left;verticalAlign=top;spacingLeft=4;spacingRight=4;overflow=hidden;rotatable=0;points=[[0,0.5],[1,0.5]];portConstraint=eastwest;whiteSpace=wrap;html=1;" vertex="1" parent="E04hdWUqzmhMeJhWMsV--32">
          <mxGeometry y="26" width="140" height="26" as="geometry" />
        </mxCell>
        <mxCell id="E04hdWUqzmhMeJhWMsV--34" value="+ field: type" style="text;strokeColor=none;fillColor=none;align=left;verticalAlign=top;spacingLeft=4;spacingRight=4;overflow=hidden;rotatable=0;points=[[0,0.5],[1,0.5]];portConstraint=eastwest;whiteSpace=wrap;html=1;" vertex="1" parent="E04hdWUqzmhMeJhWMsV--32">
          <mxGeometry y="52" width="140" height="26" as="geometry" />
        </mxCell>
        <mxCell id="E04hdWUqzmhMeJhWMsV--35" value="+ field: type" style="text;strokeColor=none;fillColor=none;align=left;verticalAlign=top;spacingLeft=4;spacingRight=4;overflow=hidden;rotatable=0;points=[[0,0.5],[1,0.5]];portConstraint=eastwest;whiteSpace=wrap;html=1;" vertex="1" parent="E04hdWUqzmhMeJhWMsV--32">
          <mxGeometry y="78" width="140" height="26" as="geometry" />
        </mxCell>
        <mxCell id="E04hdWUqzmhMeJhWMsV--36" value="STATUS_INSTECAO" style="swimlane;fontStyle=0;childLayout=stackLayout;horizontal=1;startSize=26;fillColor=none;horizontalStack=0;resizeParent=1;resizeParentMax=0;resizeLast=0;collapsible=1;marginBottom=0;whiteSpace=wrap;html=1;" vertex="1" parent="xhqZjStJutzh6jZHeKQB-17">
          <mxGeometry x="470" y="481" width="140" height="104" as="geometry" />
        </mxCell>
        <mxCell id="E04hdWUqzmhMeJhWMsV--37" value="+ field: type" style="text;strokeColor=none;fillColor=none;align=left;verticalAlign=top;spacingLeft=4;spacingRight=4;overflow=hidden;rotatable=0;points=[[0,0.5],[1,0.5]];portConstraint=eastwest;whiteSpace=wrap;html=1;" vertex="1" parent="E04hdWUqzmhMeJhWMsV--36">
          <mxGeometry y="26" width="140" height="26" as="geometry" />
        </mxCell>
        <mxCell id="E04hdWUqzmhMeJhWMsV--38" value="+ field: type" style="text;strokeColor=none;fillColor=none;align=left;verticalAlign=top;spacingLeft=4;spacingRight=4;overflow=hidden;rotatable=0;points=[[0,0.5],[1,0.5]];portConstraint=eastwest;whiteSpace=wrap;html=1;" vertex="1" parent="E04hdWUqzmhMeJhWMsV--36">
          <mxGeometry y="52" width="140" height="26" as="geometry" />
        </mxCell>
        <mxCell id="E04hdWUqzmhMeJhWMsV--39" value="+ field: type" style="text;strokeColor=none;fillColor=none;align=left;verticalAlign=top;spacingLeft=4;spacingRight=4;overflow=hidden;rotatable=0;points=[[0,0.5],[1,0.5]];portConstraint=eastwest;whiteSpace=wrap;html=1;" vertex="1" parent="E04hdWUqzmhMeJhWMsV--36">
          <mxGeometry y="78" width="140" height="26" as="geometry" />
        </mxCell>
        <mxCell id="E04hdWUqzmhMeJhWMsV--40" style="edgeStyle=orthogonalEdgeStyle;rounded=0;orthogonalLoop=1;jettySize=auto;html=1;entryX=0;entryY=0.5;entryDx=0;entryDy=0;" edge="1" parent="xhqZjStJutzh6jZHeKQB-17" source="xhqZjStJutzh6jZHeKQB-21" target="E04hdWUqzmhMeJhWMsV--32">
          <mxGeometry relative="1" as="geometry" />
        </mxCell>
        <mxCell id="E04hdWUqzmhMeJhWMsV--42" value="Template inspecao" style="swimlane;fontStyle=0;childLayout=stackLayout;horizontal=1;startSize=26;fillColor=none;horizontalStack=0;resizeParent=1;resizeParentMax=0;resizeLast=0;collapsible=1;marginBottom=0;whiteSpace=wrap;html=1;" vertex="1" parent="xhqZjStJutzh6jZHeKQB-17">
          <mxGeometry x="280" y="631" width="140" height="104" as="geometry" />
        </mxCell>
        <mxCell id="E04hdWUqzmhMeJhWMsV--43" value="+ field: type" style="text;strokeColor=none;fillColor=none;align=left;verticalAlign=top;spacingLeft=4;spacingRight=4;overflow=hidden;rotatable=0;points=[[0,0.5],[1,0.5]];portConstraint=eastwest;whiteSpace=wrap;html=1;" vertex="1" parent="E04hdWUqzmhMeJhWMsV--42">
          <mxGeometry y="26" width="140" height="26" as="geometry" />
        </mxCell>
        <mxCell id="E04hdWUqzmhMeJhWMsV--44" value="+ field: type" style="text;strokeColor=none;fillColor=none;align=left;verticalAlign=top;spacingLeft=4;spacingRight=4;overflow=hidden;rotatable=0;points=[[0,0.5],[1,0.5]];portConstraint=eastwest;whiteSpace=wrap;html=1;" vertex="1" parent="E04hdWUqzmhMeJhWMsV--42">
          <mxGeometry y="52" width="140" height="26" as="geometry" />
        </mxCell>
        <mxCell id="E04hdWUqzmhMeJhWMsV--45" value="+ field: type" style="text;strokeColor=none;fillColor=none;align=left;verticalAlign=top;spacingLeft=4;spacingRight=4;overflow=hidden;rotatable=0;points=[[0,0.5],[1,0.5]];portConstraint=eastwest;whiteSpace=wrap;html=1;" vertex="1" parent="E04hdWUqzmhMeJhWMsV--42">
          <mxGeometry y="78" width="140" height="26" as="geometry" />
        </mxCell>
        <mxCell id="E04hdWUqzmhMeJhWMsV--46" style="edgeStyle=orthogonalEdgeStyle;rounded=0;orthogonalLoop=1;jettySize=auto;html=1;entryX=0;entryY=0.5;entryDx=0;entryDy=0;" edge="1" parent="xhqZjStJutzh6jZHeKQB-17" source="xhqZjStJutzh6jZHeKQB-21" target="E04hdWUqzmhMeJhWMsV--44">
          <mxGeometry relative="1" as="geometry">
            <Array as="points">
              <mxPoint x="130" y="696" />
            </Array>
          </mxGeometry>
        </mxCell>
        <mxCell id="xhqZjStJutzh6jZHeKQB-22" style="edgeStyle=orthogonalEdgeStyle;rounded=0;orthogonalLoop=1;jettySize=auto;html=1;entryX=0.644;entryY=1.022;entryDx=0;entryDy=0;entryPerimeter=0;" edge="1" parent="1" source="xhqZjStJutzh6jZHeKQB-18" target="xhqZjStJutzh6jZHeKQB-15">
          <mxGeometry relative="1" as="geometry" />
        </mxCell>
        <mxCell id="E04hdWUqzmhMeJhWMsV--1" value="Checklist" style="swimlane;fontStyle=0;childLayout=stackLayout;horizontal=1;startSize=26;fillColor=none;horizontalStack=0;resizeParent=1;resizeParentMax=0;resizeLast=0;collapsible=1;marginBottom=0;whiteSpace=wrap;html=1;" vertex="1" parent="1">
          <mxGeometry x="1410" y="610" width="140" height="104" as="geometry" />
        </mxCell>
        <mxCell id="E04hdWUqzmhMeJhWMsV--2" value="+ field: type" style="text;strokeColor=none;fillColor=none;align=left;verticalAlign=top;spacingLeft=4;spacingRight=4;overflow=hidden;rotatable=0;points=[[0,0.5],[1,0.5]];portConstraint=eastwest;whiteSpace=wrap;html=1;" vertex="1" parent="E04hdWUqzmhMeJhWMsV--1">
          <mxGeometry y="26" width="140" height="26" as="geometry" />
        </mxCell>
        <mxCell id="E04hdWUqzmhMeJhWMsV--3" value="+ field: type" style="text;strokeColor=none;fillColor=none;align=left;verticalAlign=top;spacingLeft=4;spacingRight=4;overflow=hidden;rotatable=0;points=[[0,0.5],[1,0.5]];portConstraint=eastwest;whiteSpace=wrap;html=1;" vertex="1" parent="E04hdWUqzmhMeJhWMsV--1">
          <mxGeometry y="52" width="140" height="26" as="geometry" />
        </mxCell>
        <mxCell id="E04hdWUqzmhMeJhWMsV--4" value="+ field: type" style="text;strokeColor=none;fillColor=none;align=left;verticalAlign=top;spacingLeft=4;spacingRight=4;overflow=hidden;rotatable=0;points=[[0,0.5],[1,0.5]];portConstraint=eastwest;whiteSpace=wrap;html=1;" vertex="1" parent="E04hdWUqzmhMeJhWMsV--1">
          <mxGeometry y="78" width="140" height="26" as="geometry" />
        </mxCell>
        <mxCell id="E04hdWUqzmhMeJhWMsV--5" style="edgeStyle=orthogonalEdgeStyle;rounded=0;orthogonalLoop=1;jettySize=auto;html=1;entryX=-0.013;entryY=0.088;entryDx=0;entryDy=0;entryPerimeter=0;exitX=1;exitY=0.5;exitDx=0;exitDy=0;" edge="1" parent="1" source="xhqZjStJutzh6jZHeKQB-13" target="E04hdWUqzmhMeJhWMsV--2">
          <mxGeometry relative="1" as="geometry">
            <Array as="points">
              <mxPoint x="1290" y="609" />
              <mxPoint x="1350" y="609" />
              <mxPoint x="1350" y="598" />
              <mxPoint x="1408" y="598" />
            </Array>
          </mxGeometry>
        </mxCell>
        <mxCell id="E04hdWUqzmhMeJhWMsV--26" style="edgeStyle=orthogonalEdgeStyle;rounded=0;orthogonalLoop=1;jettySize=auto;html=1;entryX=0;entryY=0.5;entryDx=0;entryDy=0;" edge="1" parent="1" source="xhqZjStJutzh6jZHeKQB-19" target="EDJxCNstEKyhmiNfr5sV-4">
          <mxGeometry relative="1" as="geometry">
            <Array as="points">
              <mxPoint x="260" y="1278" />
              <mxPoint x="260" y="1300" />
              <mxPoint x="40" y="1300" />
              <mxPoint x="40" y="331" />
            </Array>
          </mxGeometry>
        </mxCell>
      </root>
    </mxGraphModel>
  </diagram>
</mxfile>
